<svg xmlns="http://www.w3.org/2000/svg" version="1.1" xmlns:xlink="http://www.w3.org/1999/xlink" xmlns:svgjs="http://svgjs.com/svgjs" width="700" height="1000" preserveAspectRatio="none" viewBox="0 0 700 1000"><g mask="url(&quot;#SvgjsMask1028&quot;)" fill="none"><rect width="700" height="1000" x="0" y="0" fill="#0e2a47"></rect><path d="M 0,398 C 28,348.8 84,132.6 140,152 C 196,171.4 224,499.4 280,495 C 336,490.6 364,137 420,130 C 476,123 504,453.8 560,460 C 616,466.2 672,220.8 700,161L700 1000L0 1000z" fill="#184a7e"></path><path d="M 0,532 C 46.8,589.2 140.4,811.4 234,818 C 327.6,824.6 374.8,551.4 468,565 C 561.2,578.6 653.6,821.8 700,886L700 1000L0 1000z" fill="#2264ab"></path></g><defs><mask id="SvgjsMask1028"><rect width="700" height="1000" fill="#ffffff"></rect></mask></defs></svg>